<svg width="324" height="62" viewBox="0 0 324 62" fill="none" xmlns="http://www.w3.org/2000/svg">
<g clip-path="url(#clip0_307_2140)">
<path d="M2.05713 36.0464C3.42898 35.7988 4.82025 35.6745 6.21427 35.675C11.8571 35.675 17.025 37.6857 21.05 41.0321" stroke="url(#paint0_linear_307_2140)" stroke-width="3.57143" stroke-linecap="round" stroke-linejoin="round"/>
<path d="M18.1286 49.9607H5.62856C4.68136 49.9607 3.77295 49.5844 3.10318 48.9147C2.4334 48.2449 2.05713 47.3365 2.05713 46.3893V17.8179C2.05713 16.8707 2.4334 15.9622 3.10318 15.2925C3.77295 14.6227 4.68136 14.2464 5.62856 14.2464H34.2C35.1472 14.2464 36.0556 14.6227 36.7254 15.2925C37.3951 15.9622 37.7714 16.8707 37.7714 17.8179V30.3179" stroke="url(#paint1_linear_307_2140)" stroke-width="3.57143" stroke-linecap="round" stroke-linejoin="round"/>
<path d="M22.5928 32.1036C23.7768 32.1036 24.9123 31.6332 25.7496 30.796C26.5868 29.9588 27.0571 28.8233 27.0571 27.6393C27.0571 26.4553 26.5868 25.3198 25.7496 24.4826C24.9123 23.6453 23.7768 23.175 22.5928 23.175C21.4088 23.175 20.2733 23.6453 19.4361 24.4826C18.5989 25.3198 18.1285 26.4553 18.1285 27.6393C18.1285 28.8233 18.5989 29.9588 19.4361 30.796C20.2733 31.6332 21.4088 32.1036 22.5928 32.1036ZM26.2143 49.725C24.9607 49.5071 24.9607 47.7071 26.2143 47.4893C28.4338 47.103 30.4881 46.0645 32.1152 44.5061C33.7422 42.9477 34.8683 40.9402 35.35 38.7393L35.425 38.3929C35.6964 37.1536 37.4607 37.1464 37.7428 38.3821L37.8357 38.7857C38.3358 40.9766 39.4722 42.9709 41.102 44.5181C42.7318 46.0653 44.7825 47.0965 46.9964 47.4821C48.2571 47.7036 48.2571 49.5107 46.9964 49.7321C44.7823 50.1173 42.7314 51.1484 41.1015 52.6956C39.4716 54.2429 38.3354 56.2375 37.8357 58.4286L37.7428 58.8321C37.4607 60.0679 35.6964 60.0607 35.425 58.8214L35.35 58.475C34.8683 56.2741 33.7422 54.2666 32.1152 52.7082C30.4881 51.1498 28.4338 50.1113 26.2143 49.725Z" stroke="url(#paint2_linear_307_2140)" stroke-width="3.57143" stroke-linecap="round" stroke-linejoin="round"/>
</g>
<path d="M66.552 49H61.128V15.496H75.576C78.584 15.496 80.952 16.408 82.68 18.232C84.408 20.024 85.272 22.472 85.272 25.576C85.272 27.976 84.712 29.976 83.592 31.576C82.504 33.144 80.888 34.248 78.744 34.888L85.992 49H79.944L73.224 35.464H66.552V49ZM75.192 30.904C76.568 30.904 77.64 30.552 78.408 29.848C79.176 29.112 79.56 28.072 79.56 26.728V24.424C79.56 23.08 79.176 22.056 78.408 21.352C77.64 20.616 76.568 20.248 75.192 20.248H66.552V30.904H75.192ZM92.5811 49V15.496H114.037V20.296H98.0051V29.608H112.549V34.408H98.0051V44.2H114.037V49H92.5811ZM119.594 49V44.584H124.154V19.912H119.594V15.496H134.186V19.912H129.578V44.584H134.186V49H119.594ZM166.635 23.368H166.395L163.755 28.792L156.411 42.184L149.067 28.792L146.427 23.368H146.187V49H141.003V15.496H147.435L156.411 32.536H156.699L165.675 15.496H171.819V49H166.635V23.368ZM201.025 49L198.001 39.928H185.473L182.545 49H177.025L188.449 15.496H195.265L206.689 49H201.025ZM191.857 20.488H191.617L186.769 35.272H196.657L191.857 20.488ZM232.399 43.912H232.207C231.855 45.544 230.895 46.904 229.327 47.992C227.791 49.048 225.743 49.576 223.183 49.576C221.199 49.576 219.359 49.208 217.663 48.472C215.967 47.704 214.495 46.6 213.247 45.16C212.031 43.688 211.071 41.88 210.367 39.736C209.695 37.56 209.359 35.064 209.359 32.248C209.359 29.464 209.711 27 210.415 24.856C211.119 22.68 212.111 20.856 213.391 19.384C214.671 17.912 216.207 16.808 217.999 16.072C219.791 15.304 221.791 14.92 223.999 14.92C227.007 14.92 229.551 15.592 231.631 16.936C233.711 18.248 235.327 20.088 236.479 22.456L232.063 25.048C231.423 23.48 230.431 22.216 229.087 21.256C227.743 20.264 226.047 19.768 223.999 19.768C221.343 19.768 219.199 20.616 217.567 22.312C215.967 24.008 215.167 26.408 215.167 29.512V34.984C215.167 38.088 215.967 40.488 217.567 42.184C219.199 43.88 221.343 44.728 223.999 44.728C225.055 44.728 226.063 44.6 227.023 44.344C227.983 44.056 228.815 43.656 229.519 43.144C230.255 42.6 230.831 41.944 231.247 41.176C231.695 40.376 231.919 39.448 231.919 38.392V35.8H225.007V31.144H237.151V49H232.399V43.912ZM243.251 49V44.584H247.811V19.912H243.251V15.496H257.843V19.912H253.234V44.584H257.843V49H243.251ZM273.683 30.472L269.987 23.368H269.843V49H264.659V15.496H270.707L281.651 34.024L285.347 41.128H285.491V15.496H290.675V49H284.627L273.683 30.472ZM298.925 49V15.496H320.381V20.296H304.349V29.608H318.893V34.408H304.349V44.2H320.381V49H298.925Z" fill="url(#paint3_linear_307_2140)"/>
<defs>
<linearGradient id="paint0_linear_307_2140" x1="11.5536" y1="35.675" x2="11.5536" y2="41.0321" gradientUnits="userSpaceOnUse">
<stop stop-color="#746CF8"/>
<stop offset="1" stop-color="#4F38FB"/>
</linearGradient>
<linearGradient id="paint1_linear_307_2140" x1="19.9143" y1="14.2464" x2="19.9143" y2="49.9607" gradientUnits="userSpaceOnUse">
<stop stop-color="#746CF8"/>
<stop offset="1" stop-color="#4F38FB"/>
</linearGradient>
<linearGradient id="paint2_linear_307_2140" x1="33.0352" y1="23.175" x2="33.0352" y2="59.7549" gradientUnits="userSpaceOnUse">
<stop stop-color="#746CF8"/>
<stop offset="1" stop-color="#4F38FB"/>
</linearGradient>
<linearGradient id="paint3_linear_307_2140" x1="79.25" y1="10.3333" x2="270.297" y2="64.2852" gradientUnits="userSpaceOnUse">
<stop offset="0.113222" stop-color="#6860F7"/>
<stop offset="1" stop-color="#4D35FA"/>
</linearGradient>
<clipPath id="clip0_307_2140">
<rect width="50" height="50" fill="white" transform="translate(0 12)"/>
</clipPath>
</defs>
</svg>
